<svg width="11" height="11" viewBox="0 0 11 11" fill="none" xmlns="http://www.w3.org/2000/svg">
<path d="M0.237238 5.34503L9.80917 0.552604C9.88419 0.515035 9.96846 0.499981 10.0518 0.509257C10.1352 0.518532 10.2141 0.551741 10.2791 0.604885C10.3411 0.656945 10.3874 0.7253 10.4128 0.802265C10.4381 0.87923 10.4415 0.961754 10.4226 1.04056L9.26966 5.2971H4.34882V6.16845H9.26966L10.44 10.4119C10.4578 10.4777 10.4599 10.5468 10.4461 10.6136C10.4323 10.6803 10.4031 10.7429 10.3608 10.7963C10.3185 10.8497 10.2642 10.8924 10.2024 10.921C10.1406 10.9496 10.073 10.9632 10.005 10.9609C9.93685 10.9605 9.86979 10.9441 9.80917 10.913L0.237238 6.12053C0.16597 6.08397 0.106161 6.02842 0.0643969 5.96001C0.0226326 5.89159 0.000533104 5.81296 0.000533104 5.73278C0.000533104 5.65259 0.0226326 5.57397 0.0643969 5.50555C0.106161 5.43714 0.16597 5.38159 0.237238 5.34503Z" fill="#9D9D9D"/>
</svg>
