<svg width="11" height="14" viewBox="0 0 11 14" fill="none" xmlns="http://www.w3.org/2000/svg">
<path d="M5.36628 0C2.40377 0 0 2.42088 0 5.40447C0 7.95084 3.90311 12.5537 5.05274 13.8573C5.22157 14.0476 5.51501 14.0476 5.68383 13.8573C6.83346 12.5537 10.7326 7.95084 10.7326 5.40447C10.7326 2.42088 8.32878 0 5.36628 0ZM5.36628 7.81725C3.90311 7.81725 2.71329 6.61895 2.71329 5.14538C2.71329 3.6718 3.90311 2.47351 5.36628 2.47351C6.82944 2.47351 8.01927 3.6718 8.01927 5.14538C8.01927 6.61895 6.82944 7.81725 5.36628 7.81725Z" fill="#0094D9"/>
</svg>
