<?xml version="1.0" encoding="UTF-8"?>
<svg width="6px" height="6px" viewBox="0 0 6 6" version="1.1" xmlns="http://www.w3.org/2000/svg" xmlns:xlink="http://www.w3.org/1999/xlink">
    <!-- Generator: Sketch 61.2 (89653) - https://sketch.com -->
    <title>Combined Shape</title>
    <desc>Created with Sketch.</desc>
    <g id="Symbols" stroke="none" stroke-width="1" fill="none" fill-rule="evenodd">
        <g id="Navigation-/-Global-header-/-Simpler" transform="translate(-1214.000000, -74.000000)" fill="#ED1C25">
            <g id="Group" transform="translate(1214.000000, 74.000000)">
                <path d="M3,4.51514 C3.276,4.51514 3.5,4.73914 3.5,5.01514 C3.5,5.29114 3.276,5.51514 3,5.51514 L3,5.51514 L0.5,5.51514 C0.224,5.51514 -5.68434189e-13,5.29114 -5.68434189e-13,5.01514 C-5.68434189e-13,4.73914 0.224,4.51514 0.5,4.51514 L0.5,4.51514 Z M1.3789,1.37894 C1.5739,1.18394 1.8909,1.18394 2.0859,1.37894 L2.0859,1.37894 L3.8539,3.14694 C4.0489,3.34194 4.0489,3.65794 3.8539,3.85394 C3.7559,3.95094 3.6279,3.99994 3.4999,3.99994 C3.3719,3.99994 3.2439,3.95094 3.1469,3.85394 L3.1469,3.85394 L1.3789,2.08594 C1.1839,1.89094 1.1839,1.57394 1.3789,1.37894 Z M5.0156,3.99999999e-05 C5.2916,3.99999999e-05 5.5156,0.22404 5.5156,0.50004 L5.5156,0.50004 L5.5156,3.00004 C5.5156,3.27604 5.2916,3.50004 5.0156,3.50004 C4.7396,3.50004 4.5156,3.27604 4.5156,3.00004 L4.5156,3.00004 L4.5156,0.50004 C4.5156,0.22404 4.7396,3.99999999e-05 5.0156,3.99999999e-05 Z" id="Combined-Shape"></path>
            </g>
        </g>
    </g>
</svg>