<svg width="65" height="65" viewBox="0 0 65 65" fill="none" xmlns="http://www.w3.org/2000/svg">
<path d="M64.6235 32.8491C64.7265 36.1194 63.881 39.9216 62.4503 43.6038C60.5786 48.4209 57.8278 52.6369 53.7629 55.9004C50.3634 58.6264 46.6953 60.9114 42.6177 62.4995C39.2655 63.8127 35.6979 64.4895 32.0976 64.495C27.5067 64.5091 23.081 63.6815 18.8825 61.8186C14.7652 59.9911 11.2666 57.3185 8.41923 53.8131C6.70148 51.6976 5.14303 49.467 3.89879 47.0446C1.99553 43.3381 0.650275 39.4413 0.159282 35.2758C-0.069945 33.3362 -0.0296426 31.4047 0.140335 29.465C0.7338 22.6888 3.51512 16.8483 7.73785 11.6218C9.4318 9.52521 11.303 7.60738 13.503 6.02756C15.3485 4.70367 17.2814 3.53859 19.3381 2.57458C21.8193 1.41193 24.4374 0.720369 27.1357 0.320679C31.1214 -0.269386 35.0737 -0.008111 39.0026 0.801468C42.8703 1.59793 46.5039 2.9869 49.8568 5.09122C51.3066 6.00889 52.6702 7.05602 53.931 8.21978C57.993 11.9413 60.9117 16.4326 62.8271 21.58C64.0791 24.9499 64.6235 28.317 64.6235 32.8491ZM59.0803 24.3725V24.4211H58.2061C58.0444 24.4211 57.8827 24.4254 57.7205 24.424C57.0508 24.4172 57.0085 24.5041 56.6671 23.68C56.57 23.4469 56.5506 23.1793 56.5127 22.9253C56.4641 22.6106 56.5719 22.3454 56.8318 22.1604C57.1717 21.9175 57.5165 21.6718 57.874 21.4523C58.3698 21.1473 58.8866 20.8763 59.3795 20.5689C59.6845 20.3795 59.7345 20.0925 59.5767 19.7229C59.4383 19.398 59.2469 19.2698 58.8968 19.3285C58.3227 19.4257 57.7555 19.5617 57.1809 19.6539C56.6064 19.7462 56.028 19.82 55.4486 19.872C55.1572 19.8982 54.8455 19.8666 54.6716 19.5806C54.4715 19.2484 54.2996 18.8983 54.2471 18.5044C54.2024 18.1644 54.2602 17.8731 54.5244 17.62C54.8274 17.3278 55.1616 17.0699 55.521 16.8508C55.9654 16.5846 56.4117 16.3219 56.8507 16.0475C57.1372 15.8688 57.1907 15.6939 57.0833 15.3987C56.775 14.5619 56.4005 14.3705 55.52 14.659C54.7522 14.9101 54.0004 15.2102 53.2375 15.4725C52.3783 15.7673 52.1321 15.6779 51.6227 14.9052C51.5009 14.7147 51.3961 14.5138 51.3094 14.305C51.1516 13.9412 51.2123 13.6047 51.4964 13.3249C51.8194 13.0073 52.1569 12.7048 52.4808 12.3876C52.7814 12.0962 53.0811 11.7985 53.3633 11.4872C53.5225 11.3114 53.5089 11.1133 53.3346 10.9802C52.7188 10.5023 52.5202 10.1167 51.5649 10.8234C51.1224 11.1507 50.6247 11.394 50.1118 11.598C49.9646 11.6642 49.8118 11.7173 49.6553 11.7568C49.0502 11.8816 48.5592 11.6004 48.1333 10.9579C47.806 10.4635 48.0527 10.1085 48.3552 9.74376C48.5626 9.49462 48.769 9.24499 48.9633 8.98614C49.1187 8.77973 49.2546 8.55877 49.4003 8.34459C49.5679 8.09691 49.5354 7.85311 49.3707 7.62291C49.2756 7.4923 49.1702 7.36952 49.0555 7.25576C48.6937 6.89346 48.5514 6.87113 48.1454 7.19312C47.5864 7.63603 47.0197 8.06729 46.4078 8.43153C45.8672 8.75594 45.3165 8.7841 44.742 8.50728C43.7955 8.05125 43.8392 8.00852 44.2699 7.13921C44.5429 6.58848 44.825 6.04213 45.0766 5.48169C45.2072 5.1903 45.1174 4.98437 44.8619 4.81682C44.2306 4.40208 43.6347 4.47687 43.1495 5.05965C42.7358 5.55647 42.3331 6.06398 41.9471 6.58314C41.745 6.85462 41.4964 6.93134 41.186 6.88084C41.0585 6.85948 40.9322 6.83127 40.8077 6.79633C39.9433 6.55351 39.7845 6.32671 39.8063 5.42291C39.818 4.93726 39.8199 4.45161 39.7961 3.96596C39.7723 3.48031 39.5445 3.09472 39.0623 2.92037C38.58 2.74602 38.1099 2.79021 37.6908 3.12434C37.4637 3.30829 37.2737 3.53375 37.1309 3.7887C36.8395 4.29378 36.533 4.7906 36.2815 5.31413C36.0158 5.8668 35.6015 6.05184 35.0246 5.96685C34.9275 5.95228 34.8303 5.95616 34.7332 5.93965C34.3962 5.88186 34.2335 5.7347 34.1815 5.36658C34.1232 4.95135 34.0989 4.53029 34.0693 4.11117C34.047 3.78821 34.0543 3.46283 34.0208 3.13987C33.9756 2.70813 33.7959 2.48959 33.4817 2.42937C33.0286 2.34292 32.6605 2.46676 32.4837 2.82371C32.2545 3.28654 32.0641 3.76879 31.8601 4.24424C31.6819 4.66044 31.5119 5.08004 31.3317 5.49527C31.1632 5.88379 30.8247 5.95373 30.4488 5.96102C30.1006 5.96733 29.9122 5.75704 29.7975 5.47537C29.6888 5.2068 29.6179 4.92367 29.53 4.64684C29.3644 4.12331 29.2216 3.59104 29.0268 3.07916C28.7956 2.47259 28.362 2.17634 27.6733 2.21665C26.7681 2.27007 26.6534 2.34633 26.6588 3.22293C26.6588 3.67604 26.6802 4.12915 26.6874 4.58275C26.6913 4.80906 26.6918 5.03537 26.6816 5.26266C26.6656 5.62058 26.4903 5.8566 26.1518 5.99939C25.0348 6.47095 24.2422 6.28252 23.4953 5.33938C23.3345 5.13687 23.1951 4.91784 23.0431 4.70804C22.8717 4.4725 22.7066 4.23162 22.5201 4.00871C22.4424 3.91497 22.3258 3.81735 22.2117 3.7955C21.7353 3.70517 21.3128 3.83192 20.9825 4.19762C20.9135 4.2674 20.8658 4.3554 20.845 4.45129C20.8242 4.54719 20.8311 4.64702 20.865 4.73913C21.0189 5.16456 21.1845 5.5861 21.3356 6.0125C21.6755 6.97554 21.5891 7.25091 20.7465 7.78658C20.4978 7.93806 20.2381 8.07053 19.9694 8.18287C19.6504 8.32371 19.3381 8.30428 19.0627 8.06534C18.8199 7.85409 18.5688 7.64768 18.3309 7.42914C18.1405 7.25382 17.9686 7.05859 17.7792 6.88229C17.3523 6.48503 17.1745 6.45104 16.6563 6.73029C15.888 7.14407 15.6141 7.40631 16.2309 8.20569C16.5616 8.63452 16.7739 9.15903 17.0113 9.6539C17.1478 9.9385 17.0822 10.2129 16.8622 10.4591C16.6277 10.7326 16.2977 10.9063 15.9395 10.9448C15.6437 10.9792 15.3645 10.9171 15.0823 10.8287C14.5273 10.6486 13.9996 10.393 13.5142 10.0691C13.1256 9.81514 12.7813 9.86905 12.4511 10.1488C12.3023 10.2726 12.1679 10.4127 12.0504 10.5664C11.8139 10.885 11.777 11.2303 12.0373 11.5499C12.2801 11.85 12.5579 12.1234 12.8168 12.4114C13.0538 12.6756 13.2981 12.9345 13.5171 13.2132C13.642 13.3657 13.7029 13.5607 13.6871 13.7572C13.6356 14.2914 12.8722 15.2107 12.3642 15.3253C12.2069 15.3555 12.0452 15.3535 11.8887 15.3195C11.6677 15.2763 11.4545 15.1957 11.2379 15.1311C10.7727 14.9922 10.3108 14.8397 9.8417 14.7202C9.59143 14.6537 9.3342 14.6169 9.07533 14.6104C8.73003 14.6046 8.47118 14.8576 8.33471 15.2729C8.22884 15.5944 8.27934 15.8071 8.59696 16.0251C8.96945 16.2796 9.374 16.4846 9.7596 16.723C10.0357 16.89 10.302 17.0727 10.5571 17.2704C10.7746 17.4432 10.8484 17.6861 10.779 17.9678C10.6813 18.3769 10.5298 18.7713 10.3283 19.1406C10.1525 19.4611 9.89122 19.5932 9.53086 19.5723C9.07241 19.5461 8.64261 19.4033 8.20941 19.2722C7.62032 19.0945 7.03173 18.9216 6.4067 18.925C6.05217 18.925 5.78021 19.0653 5.59226 19.3621C5.48652 19.5246 5.39143 19.6938 5.30765 19.8686C5.16196 20.1799 5.21829 20.3625 5.53008 20.4931C5.97639 20.6801 6.43922 20.8277 6.8899 21.004C7.25026 21.1454 7.61838 21.2789 7.95833 21.4615C8.36531 21.6806 8.57755 22.0506 8.47799 22.5154C8.36078 23.0513 8.2162 23.5809 8.04479 24.102C7.87627 24.6246 7.51056 24.8829 6.93847 24.8251C6.32703 24.763 5.71269 24.7241 5.10077 24.6649C4.67923 24.6241 4.26204 24.6061 3.84973 24.7324C3.38302 24.8752 3.14069 25.1549 3.0863 25.624C3.05716 25.8746 3.13485 26.0922 3.36505 26.1903C3.72006 26.3418 4.08965 26.4613 4.45826 26.5788C5.16537 26.8061 5.8817 27.0067 6.58298 27.25C7.01667 27.4001 7.06572 27.5054 7.04921 27.9751C7.0259 28.6224 6.99092 29.2688 6.95644 29.9177C6.94819 30.0789 6.92876 30.2401 6.90788 30.4004C6.87 30.6593 6.72042 30.7972 6.45429 30.8127C6.29243 30.8209 6.13121 30.8389 5.97153 30.8666C5.14593 31.0177 4.30334 31.0871 3.50493 31.3746C2.98237 31.5626 2.48992 31.7976 2.08149 32.1823C1.89111 32.361 1.72938 32.5567 1.65994 32.8204C1.52444 33.3318 1.73181 33.6946 2.24272 33.8582C2.52064 33.9482 2.81813 33.959 3.10183 33.8893C3.64139 33.7674 4.14986 33.5634 4.65008 33.3318C5.03131 33.155 5.41257 32.9714 5.80983 32.8393C6.42709 32.6334 6.63543 32.7276 6.86417 33.3124C7.00028 33.6751 7.11031 34.0471 7.19343 34.4255C7.3673 35.1661 7.18857 35.7562 6.46107 36.1287C6.14685 36.2899 5.87101 36.5254 5.57476 36.7226C4.90096 37.1714 4.26241 37.6709 3.66469 38.2169C3.49763 38.3694 3.33932 38.5326 3.18246 38.6958C2.92603 38.9624 2.89543 39.2606 3.06832 39.585C3.12903 39.6987 3.17663 39.8201 3.24219 39.9308C3.38788 40.1736 3.54766 40.2528 3.80602 40.1765C4.02496 40.1179 4.23671 40.0352 4.43737 39.9298C5.0862 39.5671 5.72628 39.1882 6.36783 38.8128C6.73012 38.6006 7.09 38.383 7.4489 38.1635C7.61596 38.0615 7.76601 38.1038 7.87965 38.2339C8.00906 38.378 8.12136 38.5366 8.21427 38.7065C8.6431 39.5117 8.86018 40.3941 9.12001 41.26C9.19771 41.5184 9.04475 41.6787 8.84417 41.8195C8.12881 42.3212 7.40857 42.817 6.71118 43.343C6.30313 43.6612 5.91184 44.0003 5.53883 44.359C5.08329 44.7829 5.08328 45.4017 5.70006 45.847C6.07887 46.1204 6.49605 46.2311 6.97975 46.0539C7.4644 45.8712 7.91985 45.6189 8.3318 45.305C8.82522 44.9383 9.30309 44.5523 9.79797 44.188C10.0539 43.9976 10.1753 44.0088 10.3895 44.224C11.1102 44.9466 11.5813 45.8295 11.9858 46.7523C12.0655 46.9329 11.9407 47.0504 11.8076 47.1553C11.2248 47.6177 10.6396 48.0781 10.0593 48.5467C9.67898 48.8504 9.34931 49.2125 9.08261 49.6195C8.63387 50.3106 8.66204 50.7637 9.19285 51.3737C9.66685 51.9191 10.0996 51.9871 10.7275 51.6092C11.1691 51.3379 11.5804 51.0201 11.9543 50.6612C12.3311 50.3058 12.7065 49.9473 13.1043 49.6171C13.6725 49.1455 13.8575 49.1596 14.4641 49.6171C14.8308 49.8944 15.1173 50.2431 15.3791 50.6146C15.6409 50.9861 15.6491 51.1056 15.3509 51.4747C14.9648 51.9521 14.5515 52.4091 14.1426 52.868C13.7968 53.2566 13.4685 53.6577 13.2446 54.1307C13.1349 54.3619 13.0081 54.6081 13.0654 54.8743C13.1975 55.4896 13.5758 55.8941 14.1577 56.137C14.6992 56.3638 15.1056 56.137 15.465 55.7795C15.716 55.5274 15.9448 55.2541 16.1488 54.9627C16.4281 54.5664 16.6675 54.1424 16.9361 53.7383C17.0975 53.4961 17.2711 53.2622 17.4562 53.0375C17.5174 52.9607 17.5998 52.9034 17.6932 52.8728C17.7866 52.8423 17.8869 52.8398 17.9817 52.8656C18.4566 52.9783 18.9122 53.139 19.309 53.4372C19.9889 53.9481 20.1486 54.3857 19.949 55.205C19.8239 55.7081 19.6263 56.1904 19.3624 56.6367C19.1594 56.9688 19.0092 57.3304 18.917 57.7085C18.7412 58.4914 18.9685 59.0198 19.664 59.4258C19.8582 59.5385 20.0675 59.6477 20.2837 59.6973C21.4929 59.9736 21.8334 59.6803 22.1243 58.7167C22.3108 58.1 22.4074 57.454 22.5531 56.8261C22.6551 56.3861 22.7547 55.9437 22.8877 55.5148C22.9713 55.2448 23.1475 55.1511 23.4108 55.1919C24.276 55.3249 25.1115 55.6076 25.8798 56.0272C26.246 56.2258 26.4592 56.5017 26.5019 56.9393C26.5801 57.744 26.6894 58.5463 26.8118 59.3456C26.8723 59.7289 26.9646 60.1064 27.0876 60.4743C27.2212 60.8769 27.4422 61.2373 27.7855 61.5058C28.3867 61.9774 29.0778 61.7943 29.3488 61.0925C29.4906 60.7254 29.53 60.3398 29.5533 59.9508C29.6018 59.1106 29.6475 58.2699 29.7126 57.4307C29.7538 56.9019 29.885 56.7508 30.4202 56.6799C30.869 56.619 31.3218 56.5922 31.7746 56.5998C32.4706 56.6114 32.6303 56.7299 32.828 57.3739C32.9887 57.8989 33.1112 58.4365 33.2379 58.9717C33.3841 59.6027 33.5978 60.216 33.8756 60.8011C34.0125 61.0951 34.2002 61.3626 34.4302 61.5913C34.9532 62.1037 36.1717 61.9555 36.3038 60.9493C36.3582 60.5369 36.3339 60.1076 36.2931 59.6914C36.23 59.0479 36.1183 58.4093 36.0352 57.7673C35.9978 57.4793 35.9682 57.1894 35.9551 56.8994C35.9454 56.6862 36.0561 56.541 36.2606 56.4555C36.8304 56.2214 37.428 56.0615 38.0385 55.9796C39.6898 55.7504 39.3858 55.7518 39.8165 57.118C40.0108 57.7343 40.1434 58.3714 40.3639 58.9775C40.6552 59.7847 40.9821 60.0299 42.0544 59.6769C42.6216 59.4899 42.9446 59.0523 42.9873 58.4355C43.0118 58.0148 42.9804 57.5927 42.8941 57.1801C42.8198 56.7989 42.7192 56.423 42.6479 56.0418C42.6003 55.7879 42.5706 55.531 42.559 55.273C42.5526 55.175 42.5751 55.0772 42.6237 54.9918C42.6723 54.9065 42.7448 54.8372 42.8324 54.7927C43.2908 54.5457 43.8069 54.4255 44.3272 54.4445C44.5317 54.4498 44.6949 54.5712 44.8182 54.7271C45.0586 55.0311 45.2951 55.3385 45.5214 55.6532C45.8425 56.1005 46.1528 56.5575 46.5588 56.9339C46.9187 57.268 47.1902 57.2831 47.6132 57.031C48.3344 56.6046 48.5908 55.9213 48.2819 55.1161C48.0969 54.6344 47.8472 54.1774 47.6253 53.7077C47.2033 52.8195 47.2397 52.6019 47.94 51.9303C48.0562 51.8177 48.1807 51.7141 48.3125 51.6204C48.8093 51.2703 49.0492 51.2499 49.5412 51.6078C50.0637 51.9876 50.5567 52.4091 51.0608 52.8146C51.2366 52.9559 51.4007 53.1123 51.5838 53.2444C51.6488 53.2941 51.7274 53.323 51.8091 53.3273C51.8909 53.3315 51.972 53.3109 52.0418 53.2682C52.6595 52.9176 52.9043 52.1255 52.5473 51.5107C52.3375 51.1493 52.0559 50.8307 51.8077 50.4908C50.9335 49.299 50.8723 49.4602 51.9277 48.2349C52.0117 48.1378 52.1156 48.0572 52.2084 47.9669C52.5022 47.6789 52.8339 47.6512 53.187 47.8367C53.5308 48.0167 53.8708 48.2039 54.2068 48.3981C54.5711 48.6079 54.9251 48.8352 55.2922 49.0401C55.4685 49.1373 55.6769 49.1674 55.8333 49.0071C56.3107 48.5215 56.4277 48.014 56.0368 47.5424C55.8062 47.2716 55.5612 47.0133 55.3029 46.7688C54.9309 46.4084 54.5463 46.0617 54.1665 45.7096C53.9028 45.4667 53.845 45.1817 53.9358 44.8286C54.1014 44.1812 54.4492 43.6431 54.8809 43.1541C55.2568 42.7286 55.5079 42.6776 55.9843 42.9569C56.3456 43.1686 56.6768 43.4328 57.0158 43.6815C57.2766 43.8723 57.5282 44.0763 57.7861 44.272C57.9669 44.4139 58.1941 44.4831 58.4232 44.4663C59.1425 44.408 59.5888 43.984 59.8884 43.3546C60.1444 42.8131 59.8831 42.4164 59.5378 42.0502C59.3611 41.8613 59.162 41.6948 58.9448 41.5543C58.5077 41.2761 58.0561 41.0245 57.6088 40.7637C57.3291 40.601 57.0479 40.4412 56.7662 40.2814C56.4394 40.0959 56.3442 39.8147 56.416 39.4558C56.514 38.9809 56.6521 38.5151 56.8288 38.0635C56.9673 37.7031 57.1965 37.5778 57.57 37.5929C58.3184 37.6245 59.0439 37.7935 59.7763 37.9188C60.1614 37.9843 60.5441 38.0319 60.934 38.0047C61.0639 38.0006 61.1911 37.9669 61.306 37.9063C61.421 37.8457 61.5206 37.7598 61.5974 37.655C62.1049 36.9674 61.8116 36.1155 60.9928 35.912C60.8344 35.8779 60.674 35.8542 60.5125 35.8411C59.9982 35.7838 59.4815 35.7411 58.9686 35.6726C58.6165 35.6241 58.2683 35.5498 57.9211 35.475C57.6715 35.4211 57.5326 35.2569 57.5185 34.9976C57.4764 34.2204 57.5504 33.4412 57.738 32.6859C57.8235 32.3367 58.0746 32.1361 58.4179 32.071C58.6731 32.0294 58.9304 32.0013 59.1886 31.987C59.834 31.936 60.48 31.8899 61.1254 31.8413C61.2872 31.8354 61.4482 31.816 61.6067 31.7831C62.1142 31.6573 62.4109 31.2333 62.3798 30.7C62.3531 30.2401 62.1161 29.9842 61.5542 29.9152C61.139 29.8638 60.7145 29.8749 60.2944 29.8783C59.6471 29.8832 59.0002 29.9089 58.3518 29.9182C58.0964 29.9216 57.9352 29.7895 57.854 29.5423C57.5986 28.7652 57.5049 27.9644 57.4821 27.1529C57.4723 26.8027 57.5627 26.6774 57.8963 26.6133C58.4043 26.5162 58.9162 26.4472 59.4276 26.3554C60.0006 26.2525 60.5722 26.1393 61.1006 25.8775C61.3274 25.7654 61.4406 25.5861 61.4241 25.3326C61.4183 25.1715 61.3971 25.0114 61.3609 24.8543C61.2711 24.5143 61.1137 24.3847 60.7296 24.3749C60.1808 24.3623 59.6306 24.3725 59.0803 24.3725Z" fill="#160E0A"/>
<path d="M59.0805 24.3729C59.6308 24.3729 60.181 24.3627 60.7317 24.3763C61.1139 24.386 61.2713 24.5132 61.3631 24.8556C61.3992 25.0127 61.4204 25.1729 61.4262 25.334C61.4437 25.586 61.3291 25.7667 61.1028 25.8789C60.5744 26.1406 60.0028 26.2538 59.4297 26.3568C58.9202 26.4485 58.4064 26.5165 57.8984 26.6146C57.5648 26.6787 57.4745 26.804 57.4842 27.1542C57.507 27.9657 57.6007 28.767 57.8562 29.5436C57.9373 29.7908 58.099 29.9229 58.354 29.9195C59.0014 29.9103 59.6482 29.8845 60.2966 29.8797C60.7167 29.8763 61.1411 29.8651 61.5564 29.9166C62.1163 29.9855 62.3533 30.2415 62.382 30.7014C62.413 31.2356 62.1163 31.6586 61.6088 31.7844C61.4503 31.8173 61.2893 31.8368 61.1275 31.8427C60.4821 31.8912 59.8362 31.9364 59.1908 31.9884C58.9325 32.0027 58.6753 32.0307 58.42 32.0724C58.0767 32.1374 57.8256 32.338 57.7401 32.6872C57.5525 33.4426 57.4785 34.2217 57.5206 34.9989C57.5357 35.2582 57.6736 35.4224 57.9232 35.4763C58.2704 35.5511 58.6187 35.6264 58.9708 35.674C59.4836 35.7424 60.0003 35.7852 60.5147 35.8425C60.6761 35.8555 60.8366 35.8792 60.9949 35.9134C61.8138 36.1169 62.1071 36.9687 61.5996 37.6564C61.5228 37.7612 61.4231 37.8471 61.3082 37.9077C61.1932 37.9682 61.066 38.0019 60.9362 38.0061C60.5477 38.0332 60.1635 37.9857 59.7784 37.9201C59.046 37.7948 58.3214 37.6258 57.5721 37.5942C57.1986 37.5787 56.9694 37.7045 56.831 38.0648C56.6542 38.5164 56.5161 38.9822 56.4182 39.4572C56.3463 39.8141 56.4415 40.0953 56.7683 40.2828C57.05 40.4426 57.3312 40.6023 57.6109 40.765C58.0582 41.0258 58.5113 41.2774 58.947 41.5557C59.1641 41.6961 59.3633 41.8626 59.5399 42.0515C59.8852 42.4177 60.1465 42.8145 59.8906 43.356C59.5929 43.9873 59.1446 44.4093 58.4254 44.4676C58.1962 44.4845 57.969 44.4152 57.7882 44.2734C57.5303 44.0791 57.2788 43.8737 57.018 43.6828C56.678 43.4342 56.3478 43.17 55.9864 42.9582C55.51 42.679 55.258 42.73 54.8831 43.1554C54.4513 43.6444 54.1036 44.1825 53.938 44.8299C53.8472 45.183 53.905 45.4661 54.1687 45.7109C54.5484 46.063 54.9331 46.4097 55.3051 46.7701C55.5634 47.0147 55.8083 47.2729 56.0389 47.5437C56.4298 48.0153 56.3128 48.5204 55.8354 49.0085C55.679 49.1687 55.4707 49.1391 55.2944 49.0415C54.9272 48.8375 54.5732 48.6092 54.209 48.3994C53.8729 48.2052 53.5329 48.0181 53.1891 47.838C52.836 47.6525 52.5043 47.6802 52.2105 47.9682C52.1177 48.0585 52.0138 48.1391 51.9298 48.2363C50.8745 49.4616 50.9371 49.3003 51.8098 50.4921C52.058 50.8321 52.3397 51.1511 52.5495 51.512C52.9064 52.1268 52.6617 52.9204 52.0439 53.2696C51.9741 53.3123 51.893 53.3329 51.8113 53.3286C51.7295 53.3244 51.651 53.2955 51.586 53.2458C51.4038 53.1137 51.2387 52.9573 51.0629 52.816C50.5588 52.4104 50.0659 51.9904 49.5433 51.6091C49.0514 51.2512 48.8115 51.2692 48.3146 51.6217C48.1828 51.7155 48.0583 51.819 47.9421 51.9316C47.2418 52.6032 47.2054 52.8208 47.6274 53.7091C47.8494 54.1763 48.099 54.6318 48.284 55.1175C48.5929 55.9227 48.3365 56.606 47.6153 57.0324C47.1918 57.2825 46.9208 57.2674 46.5609 56.9352C46.1554 56.5589 45.8446 56.1019 45.5236 55.6546C45.2973 55.3399 45.0608 55.0325 44.8204 54.7285C44.697 54.5726 44.5338 54.4511 44.3294 54.4458C43.809 54.4269 43.293 54.5471 42.8345 54.794C42.747 54.8386 42.6744 54.9078 42.6258 54.9932C42.5772 55.0785 42.5547 55.1763 42.5611 55.2743C42.5728 55.5323 42.6025 55.7892 42.65 56.0431C42.7214 56.4243 42.8219 56.8002 42.8962 57.1815C42.9826 57.594 43.0139 58.0161 42.9895 58.4369C42.9467 59.0536 42.6238 59.4912 42.0565 59.6782C40.9842 60.0313 40.6593 59.786 40.366 58.9789C40.1455 58.3728 40.0129 57.7356 39.8187 57.1193C39.3879 55.7532 39.6919 55.7517 38.0407 55.9809C37.4301 56.0628 36.8326 56.2228 36.2627 56.4569C36.0583 56.5424 35.9475 56.6876 35.9572 56.9008C35.9704 57.1922 36 57.4806 36.0374 57.7686C36.1204 58.4106 36.2316 59.0493 36.2953 59.6928C36.3361 60.109 36.3603 60.5383 36.306 60.9506C36.1739 61.9569 34.9554 62.105 34.4323 61.5926C34.2024 61.3639 34.0146 61.0965 33.8777 60.8025C33.6 60.2174 33.3862 59.604 33.24 58.973C33.1133 58.4388 32.9909 57.9002 32.8301 57.3752C32.6325 56.7313 32.4727 56.6128 31.7768 56.6011C31.3239 56.5936 30.8711 56.6203 30.4223 56.6812C29.8881 56.7541 29.756 56.9032 29.7147 57.4321C29.6496 58.2713 29.6049 59.1119 29.5554 59.9521C29.5321 60.3406 29.4928 60.7291 29.351 61.0939C29.08 61.7956 28.3889 61.9787 27.7876 61.5072C27.4443 61.2386 27.2233 60.8758 27.0898 60.4756C26.9667 60.1077 26.8745 59.7302 26.8139 59.347C26.6915 58.5476 26.5823 57.7443 26.5041 56.9406C26.4613 56.5035 26.2481 56.2272 25.8819 56.0285C25.1136 55.6089 24.2782 55.3263 23.4129 55.1932C23.1497 55.1524 22.9734 55.2462 22.8899 55.5162C22.7568 55.9469 22.6572 56.3903 22.5552 56.8274C22.4095 57.4588 22.3124 58.1013 22.1264 58.7181C21.835 59.6816 21.4951 59.9749 20.2858 59.6986C20.0697 59.65 19.8604 59.5398 19.6661 59.4271C18.9706 59.0235 18.7434 58.4927 18.9192 57.7099C19.0113 57.3317 19.1615 56.9701 19.3645 56.638C19.6285 56.1918 19.8261 55.7095 19.9512 55.2063C20.1508 54.387 19.9905 53.9495 19.3111 53.4386C18.9143 53.1404 18.4588 52.9796 17.9838 52.867C17.889 52.8411 17.7887 52.8436 17.6953 52.8742C17.6019 52.9047 17.5195 52.962 17.4583 53.0389C17.2732 53.2635 17.0996 53.4974 16.9382 53.7397C16.6696 54.1437 16.4302 54.5653 16.151 54.964C15.947 55.2554 15.7182 55.5288 15.4672 55.7809C15.1078 56.1398 14.7013 56.3636 14.1598 56.1383C13.577 55.8955 13.1997 55.4904 13.0676 54.8756C13.0103 54.6095 13.137 54.3632 13.2468 54.1321C13.4707 53.6605 13.799 53.2579 14.1447 52.8694C14.5537 52.4104 14.967 51.9534 15.3531 51.476C15.6512 51.107 15.6401 50.9841 15.3812 50.616C15.1223 50.2478 14.8329 49.8957 14.4662 49.6184C13.8606 49.161 13.6756 49.1469 13.1064 49.6184C12.7087 49.9487 12.3333 50.3071 11.9564 50.6626C11.5825 51.0214 11.1712 51.3392 10.7297 51.6106C10.1017 51.9884 9.66899 51.9204 9.19499 51.375C8.66417 50.7651 8.63601 50.3119 9.08475 49.6209C9.35145 49.2138 9.68112 48.8517 10.0614 48.5481C10.6398 48.0794 11.2245 47.619 11.8097 47.1567C11.9428 47.0518 12.0676 46.9342 11.988 46.7536C11.5834 45.8308 11.1138 44.9479 10.3916 44.2253C10.1775 44.0101 10.056 43.999 9.80011 44.1893C9.3062 44.556 8.82881 44.9421 8.33393 45.3063C7.92199 45.6203 7.46653 45.8725 6.98189 46.0552C6.49624 46.2325 6.081 46.1218 5.7022 45.8483C5.08542 45.403 5.08543 44.7843 5.54097 44.3603C5.91397 44.0016 6.30526 43.6625 6.71331 43.3443C7.41071 42.8184 8.13095 42.3245 8.84631 41.8208C9.04688 41.68 9.19985 41.5197 9.12214 41.2614C8.86232 40.3954 8.64524 39.513 8.21641 38.7078C8.12349 38.5379 8.0112 38.3793 7.88179 38.2353C7.76815 38.1051 7.6181 38.0629 7.45104 38.1649C7.09214 38.3844 6.73226 38.6019 6.36997 38.8142C5.72842 39.1901 5.08833 39.5689 4.43951 39.9312C4.23884 40.0365 4.0271 40.1193 3.80816 40.1779C3.54979 40.2541 3.38954 40.1779 3.24433 39.9321C3.17876 39.8214 3.13117 39.7 3.07046 39.5864C2.89757 39.2619 2.92817 38.9638 3.18459 38.6971C3.34146 38.534 3.49976 38.3708 3.66683 38.2183C4.26454 37.6723 4.90309 37.1727 5.57689 36.7239C5.87314 36.5268 6.14899 36.2912 6.46321 36.13C7.19168 35.7575 7.36943 35.1674 7.19557 34.4268C7.11245 34.0484 7.00242 33.6764 6.86631 33.3137C6.6366 32.7309 6.42923 32.6338 5.81197 32.8407C5.4147 32.9728 5.03491 33.1563 4.65221 33.3331C4.15199 33.5648 3.64352 33.7702 3.10397 33.8906C2.82027 33.9603 2.52278 33.9495 2.24485 33.8596C1.73492 33.694 1.52755 33.3331 1.66207 32.8217C1.73152 32.558 1.89325 32.3623 2.08363 32.1836C2.49206 31.799 2.98449 31.5639 3.50705 31.3759C4.30546 31.0884 5.14806 31.019 5.97367 30.868C6.13334 30.8403 6.29455 30.8222 6.4564 30.814C6.72254 30.7985 6.87213 30.6606 6.91001 30.4017C6.93333 30.2415 6.95275 30.0802 6.95858 29.919C6.99306 29.2726 7.02801 28.6262 7.05132 27.9764C7.06783 27.5068 7.0188 27.4014 6.58512 27.2513C5.88384 27.0085 5.1675 26.8074 4.4604 26.5802C4.09179 26.4617 3.7222 26.3422 3.36719 26.1916C3.1365 26.0945 3.0593 25.876 3.08843 25.6254C3.14283 25.1562 3.38515 24.8765 3.85186 24.7337C4.26418 24.6074 4.68137 24.6254 5.10291 24.6662C5.71483 24.7255 6.32917 24.7633 6.9406 24.8265C7.51173 24.8843 7.87839 24.6259 8.04691 24.1033C8.21831 23.5822 8.36292 23.0526 8.48013 22.5167C8.57968 22.0519 8.36745 21.6819 7.96047 21.4629C7.62052 21.2803 7.25385 21.1467 6.89204 21.0054C6.44136 20.8291 5.97853 20.6814 5.53222 20.4945C5.22043 20.3638 5.16603 20.1812 5.30979 19.8699C5.39357 19.6951 5.48863 19.5259 5.59437 19.3634C5.78232 19.0667 6.05428 18.9263 6.40881 18.9263C7.03384 18.9229 7.62294 19.0958 8.21155 19.2735C8.64475 19.4047 9.07455 19.5475 9.533 19.5737C9.89287 19.5946 10.1546 19.4625 10.3304 19.1419C10.5319 18.7726 10.6834 18.3782 10.7811 17.9691C10.8501 17.6874 10.7768 17.4446 10.5592 17.2717C10.3041 17.0741 10.0379 16.8913 9.76174 16.7244C9.37759 16.4859 8.97159 16.281 8.5991 16.0265C8.28148 15.8094 8.23098 15.5957 8.33685 15.2742C8.47332 14.859 8.73217 14.606 9.07747 14.6118C9.33634 14.6182 9.59355 14.655 9.84381 14.7215C10.313 14.8434 10.7748 14.9935 11.2401 15.1324C11.4567 15.197 11.6699 15.2781 11.8908 15.3208C12.0473 15.3548 12.209 15.3568 12.3663 15.3267C12.8743 15.212 13.6377 14.2932 13.6892 13.7585C13.705 13.562 13.6441 13.3671 13.5192 13.2146C13.3002 12.9358 13.0559 12.677 12.8189 12.4128C12.5601 12.1248 12.2847 11.8513 12.0395 11.5512C11.7792 11.2317 11.8161 10.8864 12.0526 10.5678C12.1701 10.414 12.3045 10.2739 12.4532 10.1501C12.7835 9.87038 13.1258 9.81648 13.5163 10.0705C14.0017 10.3944 14.5294 10.65 15.0845 10.83C15.3666 10.9184 15.6459 10.9806 15.9416 10.9461C16.2998 10.9076 16.6299 10.7339 16.8644 10.4605C17.0844 10.2142 17.15 9.93983 17.0135 9.65524C16.776 9.16036 16.5638 8.63537 16.233 8.20703C15.6163 7.40765 15.8902 7.1454 16.6585 6.73163C17.1767 6.45238 17.3544 6.48637 17.7813 6.88363C17.9707 7.05992 18.1426 7.25515 18.333 7.43047C18.571 7.64901 18.8186 7.85542 19.0649 8.06668C19.3412 8.30562 19.6525 8.32504 19.9716 8.1842C20.2402 8.07187 20.4999 7.9394 20.7486 7.78791C21.5912 7.2537 21.6786 6.97688 21.3377 6.01383C21.1867 5.58743 21.0211 5.16589 20.8671 4.74046C20.8333 4.64835 20.8263 4.54851 20.8472 4.45261C20.868 4.35672 20.9157 4.26874 20.9847 4.19895C21.3149 3.83326 21.7374 3.7065 22.2138 3.79683C22.3275 3.81869 22.4445 3.91631 22.5222 4.01004C22.7087 4.23295 22.8738 4.47383 23.0453 4.70937C23.1973 4.91869 23.3366 5.13771 23.4974 5.34072C24.2443 6.28385 25.0364 6.47229 26.1539 6.00072C26.4939 5.85794 26.6677 5.62192 26.6837 5.26399C26.6939 5.03768 26.6935 4.81137 26.6896 4.58408C26.6823 4.13097 26.6624 3.67786 26.6609 3.22426C26.6575 2.35009 26.7702 2.2714 27.6755 2.21798C28.3641 2.17767 28.7978 2.47392 29.0289 3.0805C29.2232 3.59237 29.3665 4.12465 29.5321 4.64818C29.62 4.925 29.6909 5.20814 29.7997 5.4767C29.9143 5.75983 30.1027 5.97012 30.4509 5.96235C30.8268 5.95507 31.1653 5.88464 31.3338 5.49661C31.514 5.08138 31.684 4.66177 31.8623 4.24557C32.0662 3.77012 32.2566 3.28787 32.4858 2.82504C32.6626 2.46809 33.0307 2.34426 33.4838 2.4307C33.798 2.49092 33.9777 2.70946 34.0229 3.1412C34.0564 3.46222 34.0491 3.7876 34.0715 4.1125C34.1011 4.53162 34.1254 4.95268 34.1837 5.36792C34.2356 5.73604 34.3983 5.88319 34.7353 5.94099C34.8325 5.9575 34.9296 5.95361 35.0267 5.96818C35.6037 6.05317 36.018 5.86813 36.2836 5.31546C36.5352 4.79193 36.8431 4.2956 37.133 3.79004C37.2758 3.53508 37.4659 3.30963 37.693 3.12567C38.1121 2.79154 38.5764 2.7454 39.0644 2.92169C39.5525 3.09798 39.7735 3.4763 39.7982 3.9673C39.823 4.45829 39.8201 4.9386 39.8084 5.42425C39.7866 6.32804 39.9454 6.5563 40.8099 6.79767C40.9344 6.8326 41.0607 6.86081 41.1882 6.88217C41.4985 6.93074 41.7472 6.85595 41.9492 6.58447C42.3353 6.06531 42.7379 5.5578 43.1517 5.06098C43.6373 4.4782 44.2308 4.4039 44.8641 4.81816C45.1195 4.98571 45.2094 5.1921 45.0787 5.48301C44.8272 6.04345 44.5445 6.58981 44.2721 7.14054C43.8413 8.00985 43.7976 8.05259 44.7441 8.50861C45.3187 8.78543 45.8694 8.75728 46.4099 8.43286C47.0218 8.06619 47.5886 7.63736 48.1476 7.19445C48.5536 6.87247 48.6959 6.8948 49.0577 7.25709C49.1724 7.37085 49.2778 7.49363 49.3729 7.62425C49.5375 7.85444 49.57 8.09825 49.4025 8.34593C49.2568 8.5601 49.1218 8.78301 48.9654 8.98747C48.7711 9.24632 48.5647 9.49594 48.3574 9.74508C48.0548 10.1083 47.8081 10.4634 48.1354 10.9592C48.5613 11.6017 49.0523 11.8819 49.6574 11.7581C49.814 11.7187 49.9667 11.6655 50.114 11.5993C50.6268 11.3953 51.1246 11.152 51.567 10.8247C52.5223 10.1181 52.7209 10.5037 53.3367 10.9816C53.5086 11.1146 53.5247 11.3128 53.3654 11.4886C53.0832 11.7999 52.7826 12.0951 52.483 12.389C52.159 12.7061 51.8215 13.0087 51.4986 13.3263C51.2145 13.606 51.1537 13.9426 51.3116 14.3063C51.3983 14.5152 51.5031 14.716 51.6248 14.9066C52.1343 15.6792 52.3805 15.7686 53.2396 15.4738C54.004 15.2116 54.7558 14.9114 55.5222 14.6603C56.4026 14.3719 56.7771 14.5632 57.0855 15.4C57.1938 15.6953 57.1394 15.8701 56.8529 16.0488C56.4158 16.3232 55.9675 16.586 55.5231 16.8521C55.1637 17.0712 54.8295 17.3292 54.5266 17.6214C54.2624 17.872 54.2046 18.1682 54.2493 18.5057C54.3017 18.8996 54.4736 19.2497 54.6737 19.5819C54.8466 19.8694 55.1594 19.901 55.4508 19.8733C56.0302 19.8214 56.609 19.7475 57.1831 19.6553C57.7571 19.563 58.3249 19.426 58.8989 19.3299C59.25 19.2711 59.4414 19.3993 59.5788 19.7242C59.7366 20.0938 59.6866 20.3808 59.3816 20.5702C58.8877 20.8776 58.371 21.1486 57.8761 21.4536C57.5187 21.6731 57.1758 21.9174 56.8339 22.1617C56.5741 22.3467 56.4672 22.6119 56.5148 22.9266C56.5527 23.1806 56.5726 23.4482 56.6693 23.6813C57.0092 24.5069 57.0529 24.4185 57.7226 24.4253C57.8848 24.4253 58.0466 24.4229 58.2083 24.4224H59.0825L59.0805 24.3729ZM32.6558 54.726C34.6926 54.7814 36.9354 54.5318 39.1752 54.1481C42.3882 53.5974 45.1972 52.2541 47.6347 50.0973C49.3109 48.6197 50.8036 46.9461 52.0808 45.1126C53.3503 43.289 54.3367 41.3517 54.8898 39.1876C55.3078 37.5253 55.6212 35.8384 55.8281 34.1369C56.0268 32.5571 56.0884 30.9801 55.9452 29.3925C55.8893 28.7806 55.8208 28.1697 55.7509 27.5587C55.3852 24.2961 54.3872 21.2487 52.6384 18.4601C51.6904 16.9492 50.5889 15.5525 49.4107 14.2169C48.7526 13.4591 48.0325 12.7573 47.2578 12.1189C45.7538 10.8895 44.1285 9.81638 42.4072 8.91608C40.434 7.89233 38.3549 7.24301 36.1199 7.08565C34.0516 6.93996 31.9822 6.92054 29.9114 6.91277C29.3626 6.91034 28.8051 6.92151 28.266 7.0099C24.2089 7.68641 20.6049 9.38376 17.5472 12.1092C14.1928 15.0999 11.9258 18.8394 10.5106 23.0966C9.81372 25.1946 9.44947 27.3562 9.27415 29.5582C8.94487 33.7012 9.50143 37.6904 11.2823 41.4726C11.682 42.3206 12.1215 43.1501 12.5513 43.9834C13.8368 46.4787 15.708 48.467 17.9187 50.158C20.7151 52.2949 23.8106 53.7552 27.2918 54.37C28.9935 54.6716 30.702 54.7309 32.6558 54.725V54.726Z" fill="#C1AB91"/>
<path d="M32.6555 54.725C30.7027 54.7309 28.9932 54.6716 27.2949 54.372C23.8118 53.7571 20.7162 52.2978 17.9218 50.1599C15.7092 48.4689 13.8399 46.4806 12.5544 43.9854C12.1246 43.152 11.6851 42.3225 11.2854 41.4746C9.50452 37.6923 8.94796 33.7042 9.27723 29.5601C9.45255 27.3582 9.81679 25.1965 10.5137 23.0985C11.9289 18.8413 14.1959 15.1018 17.5503 12.1112C20.6099 9.38521 24.212 7.68787 28.2691 7.01184C28.8081 6.922 29.3657 6.91083 29.9145 6.91471C31.9853 6.92249 34.0546 6.94142 36.123 7.0876C38.357 7.24495 40.437 7.89427 42.4102 8.91802C44.1316 9.81832 45.7569 10.8915 47.2609 12.1209C48.0355 12.7592 48.7556 13.461 49.4138 14.2189C50.592 15.5544 51.6934 16.9512 52.6414 18.462C54.3898 21.2506 55.3883 24.2981 55.754 27.5607C55.8224 28.1716 55.8909 28.7826 55.9482 29.3945C56.0915 30.9801 56.0298 32.559 55.8312 34.1388C55.6243 35.8404 55.3109 37.5273 54.8929 39.1896C54.3398 41.3536 53.3534 43.2909 52.0839 45.1145C50.8067 46.948 49.314 48.6216 47.6378 50.0992C45.2013 52.255 42.3928 53.5993 39.1782 54.15C36.935 54.5313 34.6923 54.7823 32.6555 54.725ZM13.2372 33.9183C13.2304 34.1126 13.1964 34.3068 13.2217 34.4938C13.5257 36.7502 14.0832 38.9404 15.0754 40.9952C16.4012 43.7401 18.3914 45.9071 20.9377 47.5792C23.2662 49.1188 25.897 50.1424 28.6537 50.5815C31.1271 50.9768 33.619 50.8326 36.0982 50.5208C38.4342 50.2294 40.624 49.4795 42.7104 48.3994C44.6607 47.3903 46.3848 46.1101 47.7072 44.3302C48.7108 42.9782 49.5167 41.4901 50.1005 39.9108C50.5968 38.5757 50.9718 37.2042 51.3059 35.8211C51.912 33.3132 52.1514 30.7864 51.7148 28.2226C51.6119 27.6175 51.4385 27.0138 51.4234 26.4068C51.4103 25.8308 51.2243 25.3383 51.0048 24.8352C50.8358 24.4501 50.6648 24.0664 50.4949 23.6813C50.0408 22.6435 49.5478 21.627 48.9277 20.6742C47.4129 18.3484 45.5233 16.3577 43.4044 14.588C42.3359 13.6963 41.1738 12.9105 39.8858 12.3652C36.784 11.0539 33.5962 10.2026 30.1728 10.5998C28.7918 10.7555 27.4269 11.0304 26.0933 11.4215C25.8578 11.4915 25.58 11.5235 25.4246 11.7673C25.2689 11.8075 25.1156 11.8561 24.9652 11.913C22.7277 12.8752 20.7415 14.3391 19.1602 16.1916C18.2503 17.2437 17.4101 18.3541 16.645 19.5159C15.8495 20.7344 15.0968 21.9738 14.5567 23.3365C13.8351 25.1572 13.4504 27.0517 13.261 28.9875C13.1003 30.6251 12.9755 32.2725 13.2372 33.9183Z" fill="#160E0A"/>
<path d="M25.4245 11.7654C25.58 11.5225 25.8577 11.4895 26.0933 11.4196C27.4268 11.0284 28.7918 10.7535 30.1727 10.5979C33.5961 10.2006 36.7839 11.0505 39.8858 12.3632C41.1737 12.9086 42.3368 13.6944 43.4043 14.586C45.5232 16.3557 47.4129 18.3464 48.9276 20.6722C49.5478 21.625 50.0407 22.6415 50.4948 23.6793C50.6633 24.0644 50.8348 24.4481 51.0047 24.8332C51.2242 25.3349 51.4103 25.8288 51.4234 26.4048C51.437 27.0119 51.6103 27.6155 51.7148 28.2206C52.1518 30.7844 51.9119 33.3112 51.3058 35.8191C50.9717 37.2023 50.5968 38.5737 50.1004 39.9088C49.5166 41.4881 48.7108 42.9762 47.7072 44.3282C46.3847 46.1081 44.6607 47.3878 42.7103 48.3975C40.622 49.4776 38.4342 50.2255 36.0982 50.5188C33.6189 50.8306 31.1271 50.9748 28.6536 50.5795C25.8979 50.1406 23.2679 49.1174 20.9401 47.5787C18.3938 45.9066 16.4036 43.742 15.0778 40.9947C14.0856 38.9399 13.5281 36.7496 13.224 34.4933C13.1988 34.3058 13.2328 34.1101 13.2396 33.9183C13.6359 33.9324 13.7777 34.2243 13.9093 34.5292C14.0963 34.9629 13.9093 35.4418 14.055 35.8687C14.2007 36.2956 14.5892 36.6073 14.5892 37.0969C14.5854 37.162 14.5903 37.2273 14.6038 37.2911C14.6727 37.5398 14.7101 37.8079 14.8311 38.0298C15.0211 38.3632 15.1508 38.7275 15.2142 39.106C15.3138 39.7233 15.7805 40.1778 16.1214 40.6824C16.17 40.7529 16.2846 40.7844 16.3749 40.816C16.4318 40.8359 16.5318 40.8495 16.5566 40.8194C16.6124 40.7529 16.6843 40.6358 16.6595 40.5766C16.5138 40.2191 16.3443 39.8695 16.1739 39.5217C15.2337 37.6117 14.6198 35.6273 14.7033 33.4637C14.7407 32.4924 14.7393 31.5284 14.8544 30.56C15.0273 29.1084 15.2987 27.684 15.7747 26.3048C16.8786 23.1029 18.4516 20.137 20.3539 17.3431C21.5622 15.5699 23.1109 14.18 25.1366 13.3763C25.3771 13.2801 25.6085 13.1623 25.8276 13.0242C26.036 12.8935 26.3449 12.9839 26.4828 12.7614C26.2667 12.2452 25.8519 11.996 25.4245 11.7654ZM39.0679 46.959C39.2112 47.0974 39.0966 47.5418 39.5507 47.33C39.6828 47.2688 39.9188 47.4641 40.08 47.4272C40.249 47.3873 40.3792 47.1999 40.5365 47.0925C40.6433 47.0245 40.7573 46.9687 40.8765 46.926C41.9099 46.5272 42.5724 45.8182 42.7506 44.7002C42.7312 44.3943 42.9794 44.2524 43.1552 44.083C43.7807 43.4727 44.3513 42.8085 44.8603 42.0981C46.0433 40.4663 47.104 38.7699 47.5925 36.7822C47.7314 36.2179 47.8407 35.6462 47.9811 35.0824C48.3861 33.4827 48.3434 31.8771 48.0248 30.2745C47.8228 29.2609 47.5877 28.2532 47.3361 27.2503C47.2118 26.7506 47.1117 26.2382 46.868 25.7744C46.1754 24.4569 45.4688 23.1461 44.5728 21.9524C43.3718 20.3497 41.8415 19.1147 40.1689 18.0434C38.9096 17.2367 37.5741 16.5971 36.1181 16.2178C34.2172 15.7229 32.2814 15.6423 30.3388 15.7759C28.5633 15.8982 26.9247 16.4674 25.4823 17.5378C25.1186 17.8073 24.7427 18.0613 24.3921 18.3469C23.0211 19.4639 21.8822 20.7722 21.1212 22.3846C19.7454 25.2985 18.7988 28.3459 18.4084 31.5483C18.2593 32.7668 18.2258 33.9936 18.4832 35.2174C18.8047 36.7424 19.3005 38.2105 19.8687 39.6543C20.2257 40.562 20.7298 41.4027 21.4116 42.1039C22.5383 43.2651 23.6762 44.4166 24.8476 45.5326C25.7443 46.3774 26.7652 47.0797 27.8747 47.6151C28.1316 47.7503 28.4117 47.8361 28.7003 47.8681C29.6653 47.956 30.6283 48.0624 31.5904 48.1755C32.1045 48.2371 32.624 48.2392 33.1386 48.1819C33.4596 48.1449 33.7807 48.109 34.1031 48.0847C35.6601 47.9662 37.1787 47.6865 38.6061 47.0192C38.7586 46.9502 38.9023 46.8793 39.0679 46.959Z" fill="#C1AB91"/>
<path d="M25.424 11.7656C25.8514 11.9983 26.2662 12.2454 26.4808 12.7607C26.3429 12.9832 26.034 12.8928 25.8257 13.0235C25.6065 13.1616 25.3752 13.2794 25.1346 13.3756C23.1089 14.1793 21.5602 15.5692 20.3519 17.3423C18.4496 20.1343 16.8766 23.1022 15.7727 26.3041C15.2968 27.6833 15.0253 29.1077 14.8524 30.5593C14.7373 31.5277 14.7387 32.4942 14.7013 33.463C14.6173 35.6266 15.2317 37.611 16.1719 39.521C16.3429 39.8688 16.5119 40.2184 16.6576 40.5759C16.6823 40.6351 16.609 40.7522 16.5546 40.8187C16.5298 40.8488 16.4298 40.8352 16.373 40.8153C16.2826 40.7837 16.1671 40.7522 16.1195 40.6817C15.7795 40.1771 15.3118 39.7226 15.2123 39.1053C15.1489 38.7268 15.0192 38.3625 14.8291 38.0291C14.7082 37.8072 14.6708 37.5391 14.6018 37.2904C14.5883 37.2266 14.5834 37.1613 14.5872 37.0962C14.5872 36.6066 14.1987 36.2885 14.053 35.868C13.9073 35.4474 14.0919 34.9622 13.9073 34.5285C13.7757 34.2236 13.6339 33.9317 13.2376 33.9176C12.9749 32.2712 13.1007 30.6239 13.2609 28.9824C13.4503 27.0466 13.8349 25.1521 14.5566 23.3314C15.0972 21.9687 15.8499 20.7293 16.6449 19.5108C17.41 18.349 18.2501 17.2386 19.1601 16.1865C20.7414 14.334 22.7276 12.8701 24.9651 11.9079C25.1154 11.8522 25.2686 11.8047 25.424 11.7656Z" fill="#FBF4E4"/>
<path d="M39.0685 46.9588C38.9029 46.8792 38.7591 46.9501 38.611 47.019C37.1837 47.6863 35.665 47.9661 34.108 48.0846C33.7856 48.1093 33.4646 48.1453 33.1435 48.1817C32.6289 48.2391 32.1094 48.237 31.5953 48.1754C30.6332 48.0637 29.6702 47.9559 28.7052 47.868C28.4166 47.8359 28.1366 47.7501 27.8796 47.6149C26.7701 47.0795 25.7492 46.3772 24.8525 45.5325C23.6811 44.4155 22.5432 43.265 21.4165 42.1038C20.7366 41.401 20.2306 40.5618 19.8736 39.6542C19.3054 38.2103 18.8096 36.7403 18.4881 35.2173C18.2307 33.9934 18.2642 32.7667 18.4133 31.5482C18.8018 28.3458 19.7503 25.2998 21.1261 22.3844C21.8871 20.7721 23.026 19.4637 24.397 18.3467C24.7476 18.0612 25.1255 17.8072 25.4873 17.5376C26.9316 16.4692 28.5702 15.8981 30.3438 15.7757C32.2864 15.6421 34.2207 15.7228 36.123 16.2176C37.58 16.5969 38.9145 17.2375 40.1738 18.0432C41.8464 19.1145 43.3767 20.3515 44.5777 21.9522C45.4737 23.1459 46.1804 24.4567 46.8729 25.7743C47.1157 26.2381 47.2167 26.7504 47.341 27.2502C47.5907 28.253 47.8267 29.2607 48.0297 30.2743C48.3483 31.8769 48.391 33.4796 47.986 35.0822C47.8437 35.6456 47.7344 36.2172 47.5975 36.782C47.1089 38.7698 46.0482 40.4662 44.8652 42.0979C44.3562 42.8084 43.7857 43.4725 43.1601 44.0828C42.9843 44.2523 42.7361 44.3941 42.7555 44.7001C41.8279 45.2828 40.8931 45.8515 39.8873 46.2944C39.7732 46.343 39.6819 46.4465 39.5794 46.5242C39.2933 46.5334 39.0937 46.647 39.068 46.9612L39.0685 46.9588ZM34.3018 41.3568C36.4236 41.2816 39.101 40.0708 41.1495 37.5542C42.079 36.412 42.7245 35.1191 43.181 33.7214C43.4287 32.9519 43.5619 32.1501 43.5763 31.3418C43.6112 29.8916 43.2893 28.507 42.7361 27.1875C41.2869 23.7316 38.8281 21.4321 35.0449 20.8085C32.638 20.4122 30.3176 20.757 28.2657 22.1596C25.9977 23.7098 24.4519 25.817 23.7219 28.4847C23.3164 29.9659 23.1824 31.4724 23.4417 33.0012C23.8001 35.1138 24.8093 36.8981 26.2769 38.4182C28.1613 40.3671 30.4628 41.4035 34.3018 41.3568Z" fill="#FBF4E4"/>
<path d="M39.5768 46.5228C39.6793 46.4451 39.7711 46.3436 39.8847 46.2931C40.8905 45.8502 41.8273 45.281 42.753 44.6987C42.5748 45.8157 41.9123 46.5257 40.8788 46.9245C40.7597 46.9672 40.6457 47.023 40.5389 47.091C40.3815 47.1984 40.2514 47.3858 40.0824 47.4257C39.9212 47.464 39.6851 47.2688 39.553 47.3285C39.099 47.5383 39.2131 47.0959 39.0703 46.9575H39.0674C39.5555 47.0532 39.6094 47.0075 39.5768 46.5228Z" fill="#160E0A"/>
<path d="M34.3012 41.3574C30.4621 41.4059 28.1606 40.3676 26.2748 38.4153C24.8072 36.8952 23.798 35.1129 23.4396 32.9984C23.1803 31.4715 23.3143 29.965 23.7198 28.4818C24.4483 25.8141 25.9956 23.7069 28.2636 22.1567C30.3154 20.7541 32.6344 20.4084 35.0428 20.8056C38.826 21.4292 41.2848 23.7287 42.734 27.1846C43.2871 28.5041 43.6082 29.8887 43.5742 31.3389C43.5598 32.1472 43.4266 32.949 43.1789 33.7186C42.7223 35.1163 42.0769 36.4091 41.1474 37.5513C39.1004 40.0714 36.423 41.2811 34.3012 41.3574ZM33.1259 39.3876C34.3279 39.3876 35.1171 39.2851 35.879 38.9379C37.4035 38.2424 38.7099 37.2658 39.7055 35.8953C42.1085 32.586 41.5752 29.0019 39.7812 26.4911C39.0207 25.4266 38.0441 24.5796 36.9159 23.9172C35.0636 22.8274 33.0836 22.5574 31.0332 23.1664C27.9926 24.0658 26.1316 26.158 25.2428 29.1564C24.8305 30.5468 24.781 31.9498 25.1457 33.3665C25.9203 36.4003 29.1746 39.5784 33.1259 39.3871V39.3876Z" fill="#160E0A"/>
<path d="M39.5768 46.5234C39.6094 47.0091 39.5555 47.0538 39.0654 46.9605C39.0931 46.6463 39.2908 46.5327 39.5768 46.5234Z" fill="#C1AB91"/>
<path d="M33.126 39.387C29.1748 39.5778 25.9204 36.3997 25.1434 33.3649C24.7806 31.9483 24.8301 30.5452 25.2405 29.1548C26.1293 26.1564 27.9903 24.0642 31.0309 23.1648C33.0813 22.5582 35.0618 22.8248 36.9136 23.9156C38.0423 24.579 39.0189 25.426 39.779 26.4896C41.573 29.0004 42.1062 32.5845 39.7032 35.8937C38.7076 37.2642 37.4012 38.2408 35.8768 38.9363C35.1177 39.285 34.328 39.3899 33.126 39.387ZM27.0166 31.1673C27.0166 31.297 27.0166 31.4262 27.0166 31.5559C27.0467 34.0701 28.862 36.2633 30.9406 36.9398C33.7656 37.8596 36.3663 36.694 37.6625 34.9535C39.5842 32.3727 39.3909 28.3821 36.1715 26.1457C33.9089 24.5732 30.4117 24.8417 28.4895 27.0684C27.4702 28.2476 26.9913 29.6162 27.0166 31.1678V31.1673Z" fill="#C1AB91"/>
<path d="M27.0166 31.1679C26.9913 29.6138 27.4702 28.2477 28.4896 27.0676C30.4118 24.8423 33.9089 24.5737 36.1716 26.1448C39.3909 28.3812 39.5842 32.3718 37.6625 34.9526C36.3663 36.6931 33.7656 37.8587 30.9406 36.9389C28.863 36.2624 27.0467 34.0692 27.0166 31.555C27.0151 31.4268 27.0166 31.2976 27.0166 31.1679Z" fill="#160E0A"/>
</svg>
